<svg width="70" height="70" fill="none" xmlns="http://www.w3.org/2000/svg"><path d="M67 48 49 30l2-10h2a5 5 0 1 0-5-3l-11 1L20 0h-2l-3 4v1l1 2a33 33 0 0 0 6 39v15H8c-3 0-6 2-6 6v2l2 1h53l1-1v-2c0-4-2-6-5-6H39v-6a33 33 0 0 0 22-4l1 2 1 1 1-1 3-3v-2ZM51 14a2 2 0 1 1 2 4 2 2 0 0 1-2-4Zm-3 7-1 7-3-3 4-4Zm-1-2-4 5-4-4 8-1Zm6 44c1 0 3 2 3 4v1H5v-1c0-2 1-4 3-4h45Zm-17-5v3H25v-3h11Zm-11-2v-9c0-3 2-5 5-5 4 0 6 2 6 5v9H25Zm14-4v-5c0-4-4-7-9-7-3 0-5 1-7 4-9-10-11-24-5-35l41 41c-6 3-14 4-20 2Zm24-1-1-2L19 6l-2-2 2-1 17 17 29 29-2 2Z" fill="#212121"/><path d="M30 44a4 4 0 0 0 0 7 3 3 0 1 0 0-7Zm1 5a1 1 0 1 1-1-2 1 1 0 0 1 1 2Z" fill="#2196F3"/></svg>