<svg width="70" height="70" fill="none" xmlns="http://www.w3.org/2000/svg"><g clip-path="url(#a)"><path d="M68 33a33 33 0 1 0-43 32h1l1-1 8-26a4 4 0 1 0-2-8L22 19a1 1 0 0 0-2 2l11 11c-1 1 0 4 1 5l-8 25a31 31 0 1 1 23-1v-4a1 1 0 0 0-3 0l-8 7a1 1 0 0 0 0 3l11 3a1 1 0 0 0 2-2l-1-4c12-5 20-17 20-31Zm-33-1a1 1 0 1 1 0 3 1 1 0 0 1 0-3Zm5 33 4-5 2 7-6-2Z" fill="#212121"/><path d="M34 7v3a1 1 0 1 0 2 0V7a1 1 0 0 0-2 0ZM8 32a1 1 0 0 0 0 3h3a1 1 0 1 0 0-3H8ZM61 35a1 1 0 1 0 0-3h-2a1 1 0 0 0 0 3h2Z" fill="#2196F3"/></g><defs><clipPath id="a"><path fill="#fff" d="M0 0h70v70H0z"/></clipPath></defs></svg>