<svg width="70" height="70" fill="none" xmlns="http://www.w3.org/2000/svg"><g clip-path="url(#a)"><path d="M33 33h2v10h-2V33ZM42 37h2v6h-2v-6ZM23 41h3v2h-3v-2ZM16 40h3v3h-3v-3Z" fill="#2196F3"/><path d="M3 62h56c2 0 4-2 4-4v-4c0-2-2-4-4-4h-1V21l7-6a4 4 0 1 0-2-2l-5 5v-3c0-2-1-3-3-3H8c-2 0-3 1-3 3v35H3c-1 0-3 2-3 4v4c0 2 2 4 3 4Zm63-51a1 1 0 1 1 0 2 1 1 0 0 1 0-2ZM7 15l1-1h47l1 1v5l-2 2v-4l-2-2H10l-1 2v29l1 1h42l2-1V26l2-3v27H7V15Zm10 15a3 3 0 1 0 3 6l4 2h1l9-10 8 7h2l7-7v18H12V19h39v6l-8 7-8-6h-2l-9 10-3-2c0-2-2-4-4-4Zm2 4a1 1 0 1 1-3 0 1 1 0 0 1 3 0Zm7 19h11v1l-1 1h-9l-1-1v-1ZM2 54l1-1h20v1c0 2 2 3 4 3h9c2 0 4-1 4-3v-1h19l2 1v4l-2 2H3l-1-2v-4Z" fill="#212121"/></g><defs><clipPath id="a"><path fill="#fff" d="M0 0h70v70H0z"/></clipPath></defs></svg>